<?xml version="1.0" encoding="utf-8"?>
<!-- Generator: Adobe Illustrator 22.1.0, SVG Export Plug-In . SVG Version: 6.00 Build 0)  -->
<svg version="1.1" id="Layer_1" xmlns="http://www.w3.org/2000/svg" xmlns:xlink="http://www.w3.org/1999/xlink" x="0px" y="0px"
	 viewBox="0 0 188.3 108" style="enable-background:new 0 0 188.3 108;" xml:space="preserve">
<style type="text/css">
	.Arched_x0020_Green{fill:url(#SVGID_1_);stroke:#FFFFFF;stroke-width:0.25;stroke-miterlimit:1;}
	.st0{fill:#0481B2;stroke:#0481B2;stroke-width:2.0149;}
	.st1{fill:#F47B20;stroke:#F47B20;stroke-width:2.0149;}
	.st2{fill:#9DA137;stroke:#9DA137;stroke-width:2.0149;}
</style>
<linearGradient id="SVGID_1_" gradientUnits="userSpaceOnUse" x1="-198.5385" y1="1008.25" x2="-197.8313" y2="1007.5429">
	<stop  offset="0" style="stop-color:#1EAB4B"/>
	<stop  offset="0.9831" style="stop-color:#19361A"/>
</linearGradient>
<g>
	<path class="st0" d="M76,1.9c5.6,0,10.9,0.9,15.9,2.5v11.9C87,14.2,81.6,13.1,76,13.1c-22.7,0-41.1,18.4-41.1,41.1
		c0,22.7,18.4,41.1,41.1,41.1c5.7,0,11-1.1,15.9-3.2V104c-5,1.6-10.4,2.5-15.9,2.5c-28.9,0-52.3-23.4-52.3-52.3
		C23.7,25.3,47.1,1.9,76,1.9z"/>
	<g>
		<g>
			<path class="st1" d="M1.7,4.8C8,3.7,16.3,2.8,26.8,2.8c12.9,0,22.3,3,28.3,8.4C60.5,16,64,23.4,64,32.4c0,9.1-2.7,16.3-7.8,21.6
				C49.1,61.3,38,65.1,25.3,65.1c-3.9,0-7.5-0.1-10.5-0.9v40.5h-13V4.8z M14.8,53.5c2.9,0.7,6.5,1.1,10.8,1.1
				c15.7,0,25.4-7.8,25.4-21.5c0-13.5-9.6-19.9-23.8-19.9c-5.7,0-10.1,0.5-12.3,1.1V53.5z"/>
		</g>
	</g>
	<path class="st0" d="M172.3,1.9c5.6,0,10.9,0.9,15.9,2.5v11.9c-4.9-2.1-10.3-3.2-15.9-3.2c-22.7,0-41.1,18.4-41.1,41.1
		c0,22.7,18.4,41.1,41.1,41.1c5.7,0,11-1.1,15.9-3.2V104c-5,1.6-10.4,2.5-15.9,2.5c-28.9,0-52.3-23.4-52.3-52.3
		C120,25.3,143.5,1.9,172.3,1.9z"/>
	<g>
		<path class="st2" d="M100.1,4.9c6.6-1.2,16.2-2.1,25-2.1c14,0,23.1,2.7,29.3,8.3c4.9,4.5,7.9,11.4,7.9,19.3
			c0,13.2-8.4,22.1-18.9,25.7v0.5c7.7,2.7,12.3,9.9,14.7,20.4c3.3,14.1,5.7,23.8,7.8,27.7h-13.5c-1.6-3-3.9-11.5-6.6-24.1
			c-3-14-8.6-19.2-20.4-19.7h-12.3v43.8h-13V4.9z M113.2,51h13.4c14,0,22.8-7.7,22.8-19.2c0-13-9.4-18.7-23.3-18.7
			c-6.3,0-10.6,0.4-12.9,1.1V51z"/>
	</g>
	<path class="st0" d="M136.7,74.8c7,12.4,20.3,20.5,35.6,20.5c5.6,0,11-1.1,15.9-3.2V104c-5,1.6-10.4,2.5-15.9,2.5
		c-23.9,0-44-16-50.3-37.8"/>
	<path class="st0" d="M120.7,45.7c4.1-24.8,25.6-43.8,51.6-43.8c5.6,0,10.9,0.9,15.9,2.5v11.9c-4.9-2.1-10.3-3.2-15.9-3.2
		c-19.6,0-36,13.8-40.1,32.2"/>
	<path class="st0" d="M23.8,50C25.9,23.1,48.5,1.9,76,1.9c5.6,0,10.9,0.9,15.9,2.5v11.9C87,14.2,81.6,13.1,76,13.1
		c-20.7,0-37.8,15.3-40.6,35.1"/>
</g>
</svg>
