<?xml version="1.0" encoding="utf-8"?>
<!-- Generator: Adobe Illustrator 22.1.0, SVG Export Plug-In . SVG Version: 6.00 Build 0)  -->
<svg version="1.1" id="Layer_1" xmlns="http://www.w3.org/2000/svg" xmlns:xlink="http://www.w3.org/1999/xlink" x="0px" y="0px"
	 viewBox="0 0 902.9 108" style="enable-background:new 0 0 902.9 108;" xml:space="preserve">
<style type="text/css">
	.Arched_x0020_Green{fill:url(#SVGID_1_);stroke:#FFFFFF;stroke-width:0.25;stroke-miterlimit:1;}
	.st0{fill:#0481B2;stroke:#0481B2;stroke-width:2.0149;}
	.st1{fill:#F47B20;stroke:#F47B20;stroke-width:2.0149;}
	.st2{fill:#9DA137;stroke:#9DA137;stroke-width:2.0149;}
	.st3{fill:#F47B20;}
</style>
<linearGradient id="SVGID_1_" gradientUnits="userSpaceOnUse" x1="-198.5385" y1="1008.25" x2="-197.8313" y2="1007.5429">
	<stop  offset="0" style="stop-color:#1EAB4B"/>
	<stop  offset="0.9831" style="stop-color:#19361A"/>
</linearGradient>
<g>
	<path class="st0" d="M76,1.9c5.6,0,10.9,0.9,15.9,2.5v11.9C87,14.2,81.6,13.1,76,13.1c-22.7,0-41.1,18.4-41.1,41.1
		c0,22.7,18.4,41.1,41.1,41.1c5.7,0,11-1.1,15.9-3.2V104c-5,1.6-10.4,2.5-15.9,2.5c-28.9,0-52.3-23.4-52.3-52.3
		C23.7,25.3,47.1,1.9,76,1.9z"/>
	<g>
		<g>
			<path class="st1" d="M1.7,4.8C8,3.7,16.3,2.8,26.8,2.8c12.9,0,22.3,3,28.3,8.4C60.5,16,64,23.4,64,32.4c0,9.1-2.7,16.3-7.8,21.6
				C49.1,61.3,38,65.1,25.3,65.1c-3.9,0-7.5-0.1-10.5-0.9v40.5h-13V4.8z M14.8,53.5c2.9,0.7,6.5,1.1,10.8,1.1
				c15.7,0,25.4-7.8,25.4-21.5c0-13.5-9.6-19.9-23.8-19.9c-5.7,0-10.1,0.5-12.3,1.1V53.5z"/>
		</g>
	</g>
	<path class="st0" d="M172.3,1.9c5.6,0,10.9,0.9,15.9,2.5v11.9c-4.9-2.1-10.3-3.2-15.9-3.2c-22.7,0-41.1,18.4-41.1,41.1
		c0,22.7,18.4,41.1,41.1,41.1c5.7,0,11-1.1,15.9-3.2V104c-5,1.6-10.4,2.5-15.9,2.5c-28.9,0-52.3-23.4-52.3-52.3
		C120,25.3,143.5,1.9,172.3,1.9z"/>
	<g>
		<path class="st2" d="M100.1,4.9c6.6-1.2,16.2-2.1,25-2.1c14,0,23.1,2.7,29.3,8.3c4.9,4.5,7.9,11.4,7.9,19.3
			c0,13.2-8.4,22.1-18.9,25.7v0.5c7.7,2.7,12.3,9.9,14.7,20.4c3.3,14.1,5.7,23.8,7.8,27.7h-13.5c-1.6-3-3.9-11.5-6.6-24.1
			c-3-14-8.6-19.2-20.4-19.7h-12.3v43.8h-13V4.9z M113.2,51h13.4c14,0,22.8-7.7,22.8-19.2c0-13-9.4-18.7-23.3-18.7
			c-6.3,0-10.6,0.4-12.9,1.1V51z"/>
	</g>
	<path class="st0" d="M136.7,74.8c7,12.4,20.3,20.5,35.6,20.5c5.6,0,11-1.1,15.9-3.2V104c-5,1.6-10.4,2.5-15.9,2.5
		c-23.9,0-44-16-50.3-37.8"/>
	<path class="st0" d="M120.7,45.7c4.1-24.8,25.6-43.8,51.6-43.8c5.6,0,10.9,0.9,15.9,2.5v11.9c-4.9-2.1-10.3-3.2-15.9-3.2
		c-19.6,0-36,13.8-40.1,32.2"/>
	<path class="st0" d="M23.8,50C25.9,23.1,48.5,1.9,76,1.9c5.6,0,10.9,0.9,15.9,2.5v11.9C87,14.2,81.6,13.1,76,13.1
		c-20.7,0-37.8,15.3-40.6,35.1"/>
</g>
<g>
	<path class="st3" d="M203.8,66.4h-4.4V41.9h10.1c2.9,0,5,0.7,6.4,2.2c1.4,1.4,2.1,3.2,2.1,5.1c0,2.2-0.8,4.1-2.3,5.5
		c-1.5,1.4-3.4,2.1-5.7,2.1h-6.1V66.4z M203.8,52.9h5.2c1.4,0,2.4-0.3,3.1-1c0.7-0.7,1.1-1.6,1.1-2.7c0-1-0.3-1.9-1-2.6
		s-1.9-1.1-3.6-1.1h-4.8V52.9z"/>
	<path class="st3" d="M236.9,66.4h-3.3l-1.4-4.1h-6.6l-1.3,4.1h-2.6l5.7-17.2h3.8L236.9,66.4z M231.4,59.9l-2.5-7.7l-2.5,7.7H231.4z
		"/>
	<path class="st3" d="M251.5,66.4h-10.6V49.2h3.3v14.4h7.3V66.4z"/>
	<path class="st3" d="M266.3,66.4h-10.6V49.2h3.3v14.4h7.3V66.4z"/>
	<path class="st3" d="M273.6,66.4h-3.1V49.2h3.1V66.4z"/>
	<path class="st3" d="M292.8,66.4h-3.3l-1.4-4.1h-6.6l-1.3,4.1h-2.6l5.7-17.2h3.8L292.8,66.4z M287.3,59.9l-2.5-7.7l-2.5,7.7H287.3z
		"/>
	<path class="st3" d="M301.4,66.4h-3.3V51.9h-4.6v-2.7H306v2.7h-4.6V66.4z"/>
	<path class="st3" d="M312.9,66.4h-3.1V49.2h3.1V66.4z"/>
	<path class="st3" d="M325.3,66.4h-3.2l-5.3-17.2h3.3l3.9,13.2l4-13.2h2.6L325.3,66.4z"/>
	<path class="st3" d="M345.7,66.4h-11.2V49.2h11.1v2.6h-8v4.7h6.4V59h-6.4v4.8h8.1V66.4z"/>
	<path class="st3" d="M376.9,57.9l4.1,0.5c-0.3,2.5-1.2,4.5-2.9,6.1c-1.6,1.6-3.8,2.4-6.5,2.4c-2.2,0-4.1-0.6-5.5-1.7
		c-1.4-1.1-2.5-2.7-3.2-4.6c-0.8-1.9-1.1-4.1-1.1-6.4c0-3.7,0.9-6.8,2.7-9.1c1.8-2.3,4.2-3.5,7.3-3.5c2.4,0,4.5,0.8,6.1,2.3
		c1.6,1.5,2.6,3.6,3.1,6.4l-4.1,0.4c-0.8-3.7-2.4-5.6-5-5.6c-1.7,0-2.9,0.8-3.9,2.3c-0.9,1.5-1.4,3.8-1.4,6.7c0,3,0.5,5.2,1.5,6.7
		c1,1.5,2.3,2.3,3.9,2.3c1.3,0,2.4-0.5,3.3-1.5C376.2,60.5,376.7,59.3,376.9,57.9z"/>
	<path class="st3" d="M399.9,66.4h-3.3l-1.4-4.1h-6.6l-1.3,4.1h-2.6l5.7-17.2h3.8L399.9,66.4z M394.4,59.9l-2.5-7.7l-2.5,7.7H394.4z
		"/>
	<path class="st3" d="M417.4,66.4h-3.3l-2.7-7.1H407v7.1h-3.1V49.2h7.5c2.1,0,3.6,0.5,4.6,1.4c1,0.9,1.5,2.1,1.5,3.6
		c0,2.2-1,3.7-3.1,4.6L417.4,66.4z M407,56.9h3.9c1.1,0,1.9-0.2,2.5-0.7c0.5-0.5,0.8-1.1,0.8-1.9c0-0.8-0.3-1.4-0.8-1.8
		c-0.5-0.5-1.3-0.7-2.3-0.7H407V56.9z"/>
	<path class="st3" d="M433.6,66.4h-11.2V49.2h11.1v2.6h-8v4.7h6.4V59h-6.4v4.8h8.1V66.4z"/>
	<path class="st3" d="M470.2,66.4h-4.7l-3.8-10.1h-6.2v10.1H451V41.9h10.7c3,0,5.1,0.7,6.5,2c1.4,1.3,2.1,3.1,2.1,5.2
		c0,3.2-1.5,5.3-4.4,6.5L470.2,66.4z M455.5,52.8h5.5c1.6,0,2.8-0.3,3.6-1c0.8-0.7,1.2-1.6,1.2-2.8c0-1.1-0.4-2-1.2-2.6
		c-0.8-0.7-1.8-1-3.2-1h-5.9V52.8z"/>
	<path class="st3" d="M487.9,66.4h-11.2V49.2h11.1v2.6h-8v4.7h6.4V59h-6.4v4.8h8.1V66.4z"/>
	<path class="st3" d="M490.7,62.3l3-0.6c0.4,1.7,1.7,2.6,4.2,2.6c1.1,0,1.9-0.2,2.5-0.7c0.6-0.4,0.9-1,0.9-1.6
		c0-0.5-0.1-0.9-0.4-1.3c-0.3-0.4-0.8-0.7-1.7-0.9l-3.3-0.9c-1.1-0.3-2-0.6-2.5-1c-0.5-0.4-1-0.9-1.3-1.6c-0.3-0.7-0.5-1.4-0.5-2.2
		c0-1.5,0.6-2.8,1.7-3.7c1.1-0.9,2.6-1.4,4.4-1.4c1.5,0,2.8,0.3,4,1c1.2,0.6,1.9,1.6,2.2,2.7l-2.9,0.7c-0.5-1.3-1.5-2-3.2-2
		c-1,0-1.7,0.2-2.2,0.6c-0.5,0.4-0.8,0.9-0.8,1.5c0,1,0.8,1.7,2.4,2.1l2.9,0.7c1.8,0.4,3,1.1,3.6,2c0.6,0.9,0.9,1.8,0.9,2.9
		c0,1.7-0.6,3-1.9,4c-1.3,1-2.9,1.5-4.9,1.5c-1.7,0-3.2-0.4-4.5-1.1C492,64.9,491.1,63.8,490.7,62.3z"/>
	<path class="st3" d="M520.4,66.4h-11.2V49.2h11.1v2.6h-8v4.7h6.4V59h-6.4v4.8h8.1V66.4z"/>
	<path class="st3" d="M538.5,66.4h-3.3l-1.4-4.1h-6.6l-1.3,4.1h-2.6l5.7-17.2h3.8L538.5,66.4z M532.9,59.9l-2.5-7.7l-2.5,7.7H532.9z
		"/>
	<path class="st3" d="M555.9,66.4h-3.3l-2.7-7.1h-4.4v7.1h-3.1V49.2h7.5c2.1,0,3.6,0.5,4.6,1.4c1,0.9,1.5,2.1,1.5,3.6
		c0,2.2-1,3.7-3.1,4.6L555.9,66.4z M545.6,56.9h3.9c1.1,0,1.9-0.2,2.5-0.7c0.5-0.5,0.8-1.1,0.8-1.9c0-0.8-0.3-1.4-0.8-1.8
		c-0.5-0.5-1.3-0.7-2.3-0.7h-4.1V56.9z"/>
	<path class="st3" d="M570.4,60.5l2.9,0.3c-0.2,1.7-0.9,3.1-2,4.3c-1.1,1.1-2.7,1.7-4.5,1.7c-1.6,0-2.8-0.4-3.8-1.2
		c-1-0.8-1.7-1.9-2.3-3.2c-0.5-1.4-0.8-2.8-0.8-4.5c0-2.6,0.6-4.8,1.9-6.4c1.2-1.6,3-2.5,5.1-2.5c1.7,0,3.1,0.5,4.3,1.6
		c1.1,1.1,1.8,2.6,2.1,4.5l-2.9,0.3c-0.5-2.6-1.7-3.9-3.5-3.9c-1.2,0-2.1,0.5-2.7,1.6c-0.6,1.1-1,2.6-1,4.7c0,2.1,0.3,3.7,1,4.7
		c0.7,1.1,1.6,1.6,2.7,1.6c0.9,0,1.7-0.4,2.3-1.1C570,62.3,570.3,61.5,570.4,60.5z"/>
	<path class="st3" d="M590.5,66.4h-3.1V59h-6.6v7.5h-3.1V49.2h3.1v7.1h6.6v-7.1h3.1V66.4z"/>
	<path class="st3" d="M622.7,57.9l4.1,0.5c-0.3,2.5-1.2,4.5-2.9,6.1c-1.6,1.6-3.8,2.4-6.5,2.4c-2.2,0-4.1-0.6-5.5-1.7
		c-1.4-1.1-2.5-2.7-3.2-4.6c-0.8-1.9-1.1-4.1-1.1-6.4c0-3.7,0.9-6.8,2.7-9.1c1.8-2.3,4.2-3.5,7.3-3.5c2.4,0,4.5,0.8,6.1,2.3
		c1.6,1.5,2.6,3.6,3.1,6.4l-4.1,0.4c-0.8-3.7-2.4-5.6-5-5.6c-1.7,0-2.9,0.8-3.9,2.3c-0.9,1.5-1.4,3.8-1.4,6.7c0,3,0.5,5.2,1.5,6.7
		c1,1.5,2.3,2.3,3.9,2.3c1.3,0,2.4-0.5,3.3-1.5C622.1,60.5,622.6,59.3,622.7,57.9z"/>
	<path class="st3" d="M638.6,66.7c-2.3,0-4.1-0.9-5.3-2.6c-1.3-1.7-1.9-3.8-1.9-6.4c0-2.5,0.7-4.6,2-6.3c1.4-1.7,3.1-2.5,5.4-2.5
		c2.2,0,4,0.8,5.3,2.5c1.3,1.7,1.9,3.8,1.9,6.3c0,2.7-0.7,4.8-2,6.4C642.6,65.9,640.9,66.7,638.6,66.7z M638.6,64.2
		c1.1,0,2.1-0.5,2.8-1.4c0.8-0.9,1.2-2.6,1.2-5c0-2-0.3-3.5-1-4.6c-0.6-1.1-1.6-1.7-3-1.7c-2.7,0-4,2.1-4,6.4c0,2.1,0.3,3.6,1,4.7
		C636.4,63.7,637.4,64.2,638.6,64.2z"/>
	<path class="st3" d="M657.2,66.7c-2.3,0-4.1-0.9-5.3-2.6c-1.3-1.7-1.9-3.8-1.9-6.4c0-2.5,0.7-4.6,2-6.3c1.4-1.7,3.1-2.5,5.4-2.5
		c2.2,0,4,0.8,5.3,2.5c1.3,1.7,1.9,3.8,1.9,6.3c0,2.7-0.7,4.8-2,6.4C661.2,65.9,659.4,66.7,657.2,66.7z M657.2,64.2
		c1.1,0,2.1-0.5,2.8-1.4c0.8-0.9,1.2-2.6,1.2-5c0-2-0.3-3.5-1-4.6c-0.6-1.1-1.6-1.7-3-1.7c-2.7,0-4,2.1-4,6.4c0,2.1,0.3,3.6,1,4.7
		C655,63.7,655.9,64.2,657.2,64.2z"/>
	<path class="st3" d="M672.5,66.4h-3.1V49.2h7c2,0,3.5,0.5,4.5,1.5c1,1,1.5,2.2,1.5,3.6c0,1.6-0.5,2.8-1.6,3.8c-1.1,1-2.4,1.5-4,1.5
		h-4.3V66.4z M672.5,57h3.7c1,0,1.7-0.2,2.2-0.7c0.5-0.5,0.8-1.1,0.8-1.9c0-0.7-0.2-1.3-0.7-1.8c-0.5-0.5-1.3-0.8-2.5-0.8h-3.4V57z"
		/>
	<path class="st3" d="M698,66.4h-11.2V49.2h11.1v2.6h-8v4.7h6.4V59h-6.4v4.8h8.1V66.4z"/>
	<path class="st3" d="M716,66.4h-3.3l-2.7-7.1h-4.4v7.1h-3.1V49.2h7.5c2.1,0,3.6,0.5,4.6,1.4c1,0.9,1.5,2.1,1.5,3.6
		c0,2.2-1,3.7-3.1,4.6L716,66.4z M705.7,56.9h3.9c1.1,0,1.9-0.2,2.5-0.7c0.5-0.5,0.8-1.1,0.8-1.9c0-0.8-0.3-1.4-0.8-1.8
		c-0.5-0.5-1.3-0.7-2.3-0.7h-4.1V56.9z"/>
	<path class="st3" d="M734.6,66.4h-3.3l-1.4-4.1h-6.6l-1.3,4.1h-2.6l5.7-17.2h3.8L734.6,66.4z M729.1,59.9l-2.5-7.7l-2.5,7.7H729.1z
		"/>
	<path class="st3" d="M743.2,66.4h-3.3V51.9h-4.6v-2.7h12.5v2.7h-4.6V66.4z"/>
	<path class="st3" d="M754.7,66.4h-3.1V49.2h3.1V66.4z"/>
	<path class="st3" d="M767,66.4h-3.2l-5.3-17.2h3.3l3.9,13.2l4-13.2h2.6L767,66.4z"/>
	<path class="st3" d="M787.5,66.4h-11.2V49.2h11.1v2.6h-8v4.7h6.4V59h-6.4v4.8h8.1V66.4z"/>
	<path class="st3" d="M823.6,53.9v12.6h-2l-1.4-3.3c-1.4,2.5-3.6,3.7-6.6,3.7c-3.3,0-5.8-1.3-7.5-3.8c-1.7-2.5-2.5-5.5-2.5-8.8
		c0-3.5,0.9-6.5,2.8-9c1.8-2.5,4.4-3.7,7.7-3.7c2.5,0,4.5,0.7,6.1,2.2c1.6,1.4,2.6,3.2,3,5.4l-3.9,0.7c-0.7-3-2.4-4.5-5.2-4.5
		c-1.7,0-3.2,0.7-4.3,2.1c-1.1,1.4-1.6,3.6-1.6,6.5c0,6.2,1.9,9.3,5.8,9.3c1.5,0,2.8-0.5,3.8-1.6c1-1,1.5-2.4,1.5-4.1h-5.1v-3.6
		H823.6z"/>
	<path class="st3" d="M843.9,66.4h-3.3l-2.7-7.1h-4.4v7.1h-3.1V49.2h7.5c2.1,0,3.6,0.5,4.6,1.4c1,0.9,1.5,2.1,1.5,3.6
		c0,2.2-1,3.7-3.1,4.6L843.9,66.4z M833.6,56.9h3.9c1.1,0,1.9-0.2,2.5-0.7c0.5-0.5,0.8-1.1,0.8-1.9c0-0.8-0.3-1.4-0.8-1.8
		c-0.5-0.5-1.3-0.7-2.3-0.7h-4.1V56.9z"/>
	<path class="st3" d="M855.2,66.7c-2.3,0-4.1-0.9-5.3-2.6c-1.3-1.7-1.9-3.8-1.9-6.4c0-2.5,0.7-4.6,2-6.3c1.4-1.7,3.1-2.5,5.4-2.5
		c2.2,0,4,0.8,5.3,2.5c1.3,1.7,1.9,3.8,1.9,6.3c0,2.7-0.7,4.8-2,6.4C859.2,65.9,857.4,66.7,855.2,66.7z M855.2,64.2
		c1.1,0,2.1-0.5,2.8-1.4c0.8-0.9,1.2-2.6,1.2-5c0-2-0.3-3.5-1-4.6c-0.6-1.1-1.6-1.7-3-1.7c-2.7,0-4,2.1-4,6.4c0,2.1,0.3,3.6,1,4.7
		C853,63.7,853.9,64.2,855.2,64.2z"/>
	<path class="st3" d="M879.2,49.2v11.1c0,1.5-0.2,2.6-0.5,3.5c-0.3,0.8-1,1.5-1.9,2.1c-1,0.6-2.1,0.9-3.5,0.9
		c-1.4,0-2.6-0.3-3.5-0.8c-0.9-0.5-1.6-1.2-1.9-2.1c-0.4-0.9-0.6-2-0.6-3.4V49.2h3.2v11.1c0,1.5,0.3,2.5,1,3
		c0.6,0.5,1.4,0.7,2.2,0.7c1,0,1.7-0.3,2.3-0.8c0.6-0.5,0.9-1.5,0.9-2.9V49.2H879.2z"/>
	<path class="st3" d="M887.8,66.4h-3.1V49.2h7c2,0,3.5,0.5,4.5,1.5c1,1,1.5,2.2,1.5,3.6c0,1.6-0.5,2.8-1.6,3.8c-1.1,1-2.4,1.5-4,1.5
		h-4.3V66.4z M887.8,57h3.7c1,0,1.7-0.2,2.2-0.7c0.5-0.5,0.8-1.1,0.8-1.9c0-0.7-0.2-1.3-0.7-1.8c-0.5-0.5-1.3-0.8-2.5-0.8h-3.4V57z"
		/>
</g>
</svg>
